<svg width="23" height="27" viewBox="0 0 23 27" fill="none" xmlns="http://www.w3.org/2000/svg">
<path d="M18.4981 4.53931C17.5991 3.64291 16.9997 2.44321 16.7758 1.12556C16.7461 0.950324 16.7231 0.771717 16.7066 0.59648V0H12.1619V18.4572C12.1554 20.6072 10.4462 22.3495 8.34178 22.3495C7.72265 22.3495 7.13975 22.1978 6.62271 21.9316C5.99055 21.6063 5.45926 21.1075 5.08822 20.4909C4.71718 19.8744 4.521 19.1644 4.52162 18.4403C4.52162 16.2836 6.23081 14.5312 8.34178 14.5312C8.74685 14.5312 9.13545 14.5952 9.501 14.7132V9.98851C9.12228 9.93459 8.73697 9.90763 8.35495 9.90763C3.73783 9.91774 0 13.7426 0 18.4572C0 21.416 1.46879 24.021 3.7016 25.5543C5.07609 26.4998 6.69545 27.0033 8.35166 27C12.9655 27 16.7033 23.1751 16.7033 18.4572V9.02471C18.5398 10.369 20.742 11.0903 23 11.0871V6.46692C22.3051 6.46692 21.6168 6.35234 20.9648 6.12656C20.507 5.96817 19.6409 5.68509 18.4948 4.53931H18.4981Z" fill="white"/>
</svg>
