<svg width="37" height="37" viewBox="0 0 37 37" fill="none" xmlns="http://www.w3.org/2000/svg">
<path fill-rule="evenodd" clip-rule="evenodd" d="M37 15.7554C37 7.06948 28.6991 0 18.5 0C8.30087 0 0 7.06948 0 15.7554C0 23.5424 6.57957 30.0674 15.4716 31.2998C16.0749 31.4349 16.8953 31.7177 17.1004 32.2579C17.2854 32.7475 17.2211 33.5157 17.1608 34.0137C17.1608 34.0137 16.9436 35.3854 16.8953 35.6766L16.8884 35.7181C16.801 36.2415 16.5783 37.5735 18.496 36.7233C20.4707 35.8496 29.1496 30.1392 33.0305 25.4501C35.713 22.3649 36.996 19.2332 36.996 15.7554H37ZM14.7414 11.5557H13.4424C13.2453 11.5557 13.0805 11.7245 13.0805 11.9313V20.3894C13.0805 20.5962 13.2413 20.765 13.4424 20.765H14.7414C14.9385 20.765 15.1034 20.5962 15.1034 20.3894V11.9313C15.1034 11.7245 14.9425 11.5557 14.7414 11.5557ZM22.3737 11.5557H23.6727L23.6687 11.5599C23.8697 11.5599 24.0306 11.7287 24.0306 11.9355V20.3936C24.0306 20.6004 23.8697 20.7692 23.6687 20.7692H22.3696C22.3375 20.7692 22.3053 20.765 22.2771 20.7566H22.2731C22.2651 20.7523 22.257 20.7481 22.249 20.7481C22.245 20.7439 22.2369 20.7439 22.2369 20.7439C22.2329 20.7397 22.2248 20.7355 22.2208 20.7355C22.2168 20.7312 22.2088 20.727 22.2047 20.727C22.2007 20.7228 22.1927 20.7228 22.1927 20.7228L22.1685 20.7101C22.1323 20.6848 22.1002 20.6553 22.076 20.6173L18.376 15.3753V20.3978C18.376 20.6046 18.2152 20.7734 18.0141 20.7734H16.7151C16.514 20.7734 16.3531 20.6046 16.3531 20.3978V11.9398C16.3531 11.733 16.518 11.5641 16.7151 11.5641H18.0141H18.0262H18.0463H18.0664H18.0825C18.0905 11.5684 18.0945 11.5684 18.1026 11.5684H18.1146L18.1204 11.5717C18.1251 11.5745 18.1289 11.5768 18.1347 11.5768C18.1388 11.581 18.1428 11.581 18.1468 11.581C18.1508 11.581 18.1538 11.5831 18.1569 11.5852C18.1599 11.5873 18.1629 11.5895 18.1669 11.5895C18.1709 11.5937 18.179 11.5937 18.179 11.5937C18.1814 11.5949 18.1834 11.5966 18.1853 11.5983C18.1859 11.5988 18.1865 11.5993 18.1871 11.5999C18.1908 11.6032 18.1942 11.6063 18.1991 11.6063C18.2031 11.6106 18.2112 11.6148 18.2112 11.6148C18.2152 11.6169 18.2182 11.619 18.2212 11.6211L18.2242 11.6232C18.2252 11.6239 18.2262 11.6245 18.2273 11.6252C18.2285 11.6259 18.2298 11.6267 18.2313 11.6274C18.2313 11.6317 18.2393 11.6359 18.2393 11.6359C18.2413 11.637 18.2431 11.6383 18.2448 11.6398C18.2464 11.6412 18.2479 11.6428 18.2494 11.6443C18.2524 11.6475 18.2554 11.6507 18.2594 11.6528L18.2675 11.6612C18.2715 11.6696 18.2795 11.6781 18.2876 11.6865C18.2956 11.6992 18.3157 11.7245 18.3157 11.7245L22.0117 16.958V11.9313C22.0117 11.7245 22.1726 11.5557 22.3737 11.5557ZM11.6158 18.6547H8.08873V11.9355C8.08873 11.7287 7.92786 11.5557 7.72677 11.5557H6.42775C6.23069 11.5557 6.0658 11.7245 6.0658 11.9355V20.3936C6.0658 20.4949 6.10601 20.5877 6.16634 20.6553L6.17036 20.6595L6.17438 20.6637C6.23873 20.727 6.32721 20.7692 6.42373 20.7692H11.6078C11.8048 20.7692 11.9657 20.6004 11.9657 20.3894V19.0261C11.9657 18.8193 11.8048 18.6463 11.6078 18.6463L11.6158 18.6547ZM31.1978 13.2925C31.1978 13.5035 31.0369 13.6724 30.8398 13.6724V13.6513H27.3128V15.082H30.8398C31.0369 15.082 31.1978 15.2509 31.1978 15.4619V16.8251C31.1978 17.0362 31.0369 17.205 30.8398 17.205H27.3128V18.6358H30.8398C31.0369 18.6358 31.1978 18.8088 31.1978 19.0156V20.3789C31.1978 20.5899 31.0369 20.7587 30.8398 20.7587H25.6558C25.5593 20.7587 25.4708 20.7165 25.4064 20.6532L25.4024 20.649L25.3984 20.6448C25.3381 20.5772 25.2979 20.4844 25.2979 20.3831V11.925C25.2979 11.8237 25.3381 11.7309 25.3984 11.6634C25.3984 11.6591 25.4024 11.6549 25.4024 11.6549H25.4064C25.4708 11.5916 25.5593 11.5494 25.6558 11.5494H30.8398C31.0369 11.5494 31.1978 11.7182 31.1978 11.9293V13.2925Z" fill="white"/>
</svg>
