<svg width="38" height="25" viewBox="0 0 38 25" fill="none" xmlns="http://www.w3.org/2000/svg">
<path d="M19.8419 24.9672L12.0457 24.8316C9.52153 24.7844 6.99103 24.8787 4.51631 24.3892C0.751693 23.6577 0.484994 20.0713 0.205922 17.063C-0.178611 12.8336 -0.0297469 8.52755 0.695917 4.33353C1.10558 1.98024 2.71776 0.576015 5.21095 0.423209C13.6273 -0.131347 22.0996 -0.0656264 30.4972 0.193094C31.3841 0.216812 32.2771 0.346443 33.1517 0.493999C37.4685 1.21367 37.5738 5.27788 37.8536 8.69918C38.1327 12.1558 38.0149 15.6301 37.4815 19.0632C37.0535 21.9057 36.2348 24.2894 32.7795 24.5195C28.4503 24.8204 24.2204 25.0627 19.879 24.9855C19.8792 24.9672 19.8542 24.9672 19.8419 24.9672ZM15.2585 17.7709C18.5209 15.9893 21.7211 14.2375 24.9649 12.4679C21.6964 10.6864 18.5023 8.93455 15.2585 7.16497V17.7709Z" fill="white"/>
</svg>
